<svg xmlns="http://www.w3.org/2000/svg" version="1.1" xmlns:xlink="http://www.w3.org/1999/xlink" xmlns:svgjs="http://svgjs.com/svgjs" width="201" height="201"><svg width="201" height="201" viewBox="0 0 201 201" fill="none" xmlns="http://www.w3.org/2000/svg">
<path d="M48.439 27.7135L43.6308 31.9395L55.0904 44.9776L51.2284 48.372L39.7689 35.3338L35.0488 39.4825L32.4281 36.5008L45.8183 24.7318L48.439 27.7135Z" fill="url(#paint0_linear_1_41)"></path>
<path d="M77.9749 28.3147L71.3597 30.7403L71.5761 34.9047L66.4187 36.7958L66.4204 14.0785L70.9589 12.4143L85.7005 29.7257L80.5156 31.6269L77.9749 28.3147ZM71.1483 26.5896L75.453 25.0112L70.7472 18.8577L71.1483 26.5896Z" fill="url(#paint1_linear_1_41)"></path>
<path d="M105.508 23.4433C105.522 22.6914 105.264 22.1007 104.735 21.6711C104.215 21.2417 103.291 20.7903 101.961 20.3168C100.632 19.8434 99.5459 19.3891 98.704 18.9538C95.9654 17.5464 94.6177 15.6564 94.6607 13.2838C94.6822 12.1023 95.0428 11.0687 95.7426 10.1828C96.4523 9.28732 97.4415 8.60204 98.7101 8.12693C99.9788 7.64207 101.399 7.4139 102.971 7.44244C104.504 7.47026 105.871 7.76855 107.072 8.33731C108.282 8.90625 109.215 9.70456 109.871 10.7323C110.526 11.7502 110.842 12.9084 110.819 14.2071L105.692 14.114C105.708 13.245 105.452 12.5664 104.924 12.0782C104.405 11.5902 103.692 11.338 102.784 11.3215C101.866 11.3048 101.135 11.4967 100.59 11.897C100.056 12.2878 99.7827 12.7956 99.7714 13.4205C99.7615 13.9673 100.045 14.4706 100.623 14.9303C101.201 15.3804 102.223 15.858 103.688 16.3632C105.154 16.8586 106.356 17.3883 107.293 17.9523C109.573 19.322 110.692 21.1737 110.65 23.5073C110.616 25.3722 109.886 26.8241 108.461 27.8628C107.036 28.9016 105.098 29.3987 102.647 29.3542C100.919 29.3228 99.357 28.9868 97.9621 28.3462C96.5772 27.6959 95.5381 26.8273 94.8449 25.7404C94.1615 24.6438 93.8326 23.3925 93.8581 21.9865L99.0135 22.0801C98.9928 23.2224 99.2704 24.0723 99.8463 24.6298C100.432 25.1776 101.389 25.4636 102.717 25.4877C103.566 25.5031 104.239 25.3346 104.733 24.9822C105.238 24.6202 105.496 24.1072 105.508 23.4433Z" fill="#1070FD"></path>
<path d="M129.924 26.75L127.096 28.095L124.97 33.3024L120.21 31.3584L128.274 11.6136L133.034 13.5577L129.478 22.2638L132.157 20.4307L138.946 15.9725L144.832 18.3763L134.593 24.3845L136.768 38.1211L131.126 35.817L129.924 26.75Z" fill="#1070FD"></path>
<path d="M161.097 46.9161L155.221 41.361L151.729 45.0547L158.669 51.616L155.952 54.49L145.276 44.3964L159.928 28.8981L170.626 39.0118L167.898 41.8965L160.937 35.315L157.847 38.5828L163.723 44.1379L161.097 46.9161Z" fill="#1070FD"></path>
<path d="M172.093 66.6555L170.898 64.142L164.098 67.3752L161.89 62.7318L181.152 53.5731L184.756 61.1534C185.842 63.4376 186.185 65.4647 185.783 67.2346C185.381 69.0044 184.254 70.3297 182.401 71.2104C181.061 71.8478 179.82 72.1028 178.678 71.9753C177.54 71.8567 176.423 71.3497 175.327 70.4544L169.474 78.1684L169.275 78.2628L166.91 73.2886L172.093 66.6555ZM174.483 62.4373L175.88 65.3742C176.299 66.2561 176.843 66.8086 177.511 67.0315C178.192 67.259 178.948 67.1757 179.777 66.7815C180.606 66.3873 181.147 65.8541 181.4 65.1821C181.663 64.5059 181.586 63.7312 181.171 62.8581L179.775 59.9212L174.483 62.4373Z" fill="#1070FD"></path>
<path d="M184.253 95.2939L193.776 98.5221L194.188 104.059L180.049 98.2213L172.409 98.7896L172.022 93.5891L179.662 93.0208L192.783 85.1704L193.193 90.6776L184.253 95.2939Z" fill="#1070FD"></path>
<path d="M173.872 123.285C173.644 124.033 173.231 124.586 172.632 124.945C172.042 125.306 171.402 125.382 170.71 125.171C170.019 124.961 169.524 124.54 169.227 123.908C168.938 123.28 168.908 122.592 169.135 121.844C169.365 121.087 169.78 120.53 170.379 120.171C170.975 119.822 171.614 119.751 172.296 119.958C172.978 120.166 173.47 120.58 173.77 121.203C174.068 121.834 174.102 122.529 173.872 123.285Z" fill="#1070FD"></path>
<path d="M160.87 148.332C160.388 148.947 159.803 149.313 159.115 149.431C158.434 149.555 157.809 149.395 157.241 148.949C156.672 148.503 156.363 147.932 156.313 147.235C156.271 146.544 156.492 145.892 156.974 145.277C157.462 144.655 158.05 144.284 158.738 144.166C159.42 144.056 160.042 144.221 160.603 144.66C161.164 145.1 161.472 145.665 161.528 146.353C161.577 147.05 161.358 147.71 160.87 148.332Z" fill="#1070FD"></path>
<path d="M139.698 166.991C139.027 167.39 138.349 167.52 137.664 167.382C136.985 167.251 136.46 166.876 136.091 166.255C135.722 165.633 135.64 164.989 135.846 164.322C136.056 163.663 136.497 163.134 137.169 162.734C137.849 162.33 138.531 162.197 139.215 162.336C139.891 162.479 140.411 162.858 140.776 163.47C141.14 164.083 141.223 164.721 141.026 165.383C140.821 166.051 140.378 166.586 139.698 166.991Z" fill="#1070FD"></path>
<path d="M113.216 176.741C112.445 176.871 111.766 176.747 111.178 176.371C110.591 176.004 110.238 175.464 110.118 174.752C109.998 174.039 110.155 173.409 110.588 172.861C111.022 172.322 111.624 171.988 112.395 171.858C113.175 171.727 113.859 171.85 114.447 172.226C115.025 172.604 115.374 173.145 115.492 173.848C115.61 174.551 115.458 175.176 115.035 175.722C114.602 176.27 113.996 176.61 113.216 176.741Z" fill="#1070FD"></path>
<path d="M84.9996 176.267C84.2344 176.109 83.6455 175.749 83.2331 175.185C82.8186 174.631 82.6842 174 82.8299 173.293C82.9755 172.585 83.3491 172.053 83.9505 171.699C84.55 171.353 85.2323 171.26 85.9975 171.417C86.7723 171.576 87.366 171.938 87.7784 172.501C88.1813 173.063 88.3109 173.693 88.1673 174.391C88.0236 175.089 87.6558 175.617 87.0639 175.974C86.4625 176.328 85.7744 176.426 84.9996 176.267Z" fill="#1070FD"></path>
<path d="M58.8601 165.631C58.2034 165.208 57.7845 164.659 57.6035 163.985C57.4171 163.319 57.5197 162.682 57.9112 162.074C58.3027 161.467 58.843 161.106 59.532 160.993C60.2157 160.887 60.8858 161.046 61.5425 161.47C62.2074 161.898 62.6303 162.45 62.8114 163.124C62.9843 163.793 62.8776 164.427 62.4914 165.027C62.1052 165.626 61.5716 165.985 60.8909 166.104C60.2019 166.217 59.5249 166.06 58.8601 165.631Z" fill="#1070FD"></path>
<path d="M38.3276 146.271C37.8682 145.64 37.6759 144.976 37.7507 144.282C37.8175 143.594 38.1432 143.037 38.7277 142.612C39.3122 142.187 39.9462 142.046 40.6297 142.189C41.3053 142.338 41.8728 142.728 42.3322 143.36C42.7974 144 42.9926 144.667 42.9178 145.361C42.8373 146.047 42.5087 146.6 41.9321 147.019C41.3555 147.439 40.7284 147.581 40.0506 147.446C39.3671 147.303 38.7928 146.911 38.3276 146.271Z" fill="#1070FD"></path>
<path d="M26.1753 120.802C25.9751 120.047 26.0353 119.359 26.3559 118.738C26.6669 118.12 27.1718 117.719 27.8703 117.534C28.5688 117.349 29.211 117.446 29.7967 117.827C30.3729 118.209 30.7611 118.778 30.9612 119.533C31.1639 120.298 31.1049 120.991 30.7844 121.611C30.4614 122.222 29.9553 122.619 29.2662 122.801C28.5771 122.984 27.9409 122.89 27.3577 122.519C26.7721 122.139 26.3779 121.566 26.1753 120.802Z" fill="#1070FD"></path>
<path d="M24.0442 92.662C24.1304 91.8855 24.435 91.2659 24.958 90.8032C25.4713 90.3394 26.087 90.1474 26.8053 90.2271C27.5235 90.3069 28.087 90.6298 28.4958 91.1959C28.8949 91.761 29.0514 92.4318 28.9652 93.2082C28.8779 93.9944 28.5728 94.6189 28.0498 95.0816C27.5279 95.5346 26.9126 95.7217 26.2041 95.6431C25.4956 95.5644 24.9364 95.2469 24.5265 94.6905C24.1177 94.1244 23.957 93.4482 24.0442 92.662Z" fill="#1070FD"></path>
<path d="M32.2223 65.6527C32.5832 64.9598 33.091 64.492 33.7459 64.2495C34.392 64.0025 35.0356 64.0458 35.6765 64.3797C36.3175 64.7135 36.7263 65.2181 36.9029 65.8937C37.071 66.5648 36.9745 67.2468 36.6137 67.9397C36.2483 68.6413 35.7382 69.1133 35.0834 69.3558C34.4331 69.5897 33.7918 69.542 33.1595 69.2127C32.5272 68.8834 32.1205 68.3853 31.9393 67.7184C31.7626 67.0428 31.857 66.3543 32.2223 65.6527Z" fill="#1070FD"></path>
<defs>
<linearGradient id="SvgjsLinearGradient1001" x1="50.7809" y1="28.3136" x2="42.9136" y2="36.7956" gradientUnits="userSpaceOnUse">
<stop stop-color="#1070FD"></stop>
<stop offset="1" stop-color="#CEDBF1"></stop>
</linearGradient>
<linearGradient id="SvgjsLinearGradient1000" x1="83" y1="17.5" x2="57" y2="27.5" gradientUnits="userSpaceOnUse">
<stop stop-color="#1070FD"></stop>
<stop offset="1" stop-color="#1070FD" stop-opacity="0"></stop>
</linearGradient>
</defs>
</svg><style>@media (prefers-color-scheme: light) { :root { filter: contrast(1) brightness(0.3); } }
</style></svg>